<?xml version="1.0" encoding="UTF-8" standalone="no"?>
<!-- Created with Inkscape (http://www.inkscape.org/) -->

<svg
   xmlns:dc="http://purl.org/dc/elements/1.1/"
   xmlns:cc="http://creativecommons.org/ns#"
   xmlns:rdf="http://www.w3.org/1999/02/22-rdf-syntax-ns#"
   xmlns:svg="http://www.w3.org/2000/svg"
   xmlns="http://www.w3.org/2000/svg"
   xmlns:sodipodi="http://sodipodi.sourceforge.net/DTD/sodipodi-0.dtd"
   xmlns:inkscape="http://www.inkscape.org/namespaces/inkscape"
   width="744.09448819"
   height="1052.3622047"
   id="svg35679"
   version="1.1"
   inkscape:version="0.48.2 r9819"
   sodipodi:docname="lhc.svg"
   inkscape:export-filename="/home/rocha/Desktop/lhc.png"
   inkscape:export-xdpi="215.42"
   inkscape:export-ydpi="215.42">
  <defs
     id="defs35681" />
  <sodipodi:namedview
     id="base"
     pagecolor="#ffffff"
     bordercolor="#666666"
     borderopacity="1.0"
     inkscape:pageopacity="0.0"
     inkscape:pageshadow="2"
     inkscape:zoom="1.4083514"
     inkscape:cx="397.9997"
     inkscape:cy="628.51463"
     inkscape:document-units="px"
     inkscape:current-layer="layer1"
     showgrid="true"
     inkscape:window-width="1366"
     inkscape:window-height="715"
     inkscape:window-x="0"
     inkscape:window-y="31"
     inkscape:window-maximized="1"
     showguides="false">
    <inkscape:grid
       type="xygrid"
       id="grid37305"
       empspacing="5"
       visible="true"
       enabled="true"
       snapvisiblegridlinesonly="true"
       spacingx="5px"
       spacingy="5px"
       dotted="false" />
  </sodipodi:namedview>
  <metadata
     id="metadata35684">
    <rdf:RDF>
      <cc:Work
         rdf:about="">
        <dc:format>image/svg+xml</dc:format>
        <dc:type
           rdf:resource="http://purl.org/dc/dcmitype/StillImage" />
        <dc:title></dc:title>
      </cc:Work>
    </rdf:RDF>
  </metadata>
  <g
     inkscape:groupmode="layer"
     id="layer2"
     inkscape:label="Layer" />
  <g
     inkscape:label="Layer 1"
     inkscape:groupmode="layer"
     id="layer1">
    <g
       id="g70552">
      <path
         inkscape:connector-curvature="0"
         d="m 279.22969,412.36218 0,15 -5,0 0,-15 z m -35,-55 5,0 0,10 5,0 0,10 5,0 0,15 10,0 0,10 10,0 0,10.00001 35,-10e-6 0,10 5,0 0,-10 50,0 0,5 5,0 0,5 15,0 0,-5 5,0 0,-5 5,0 0,-5 5,0 0,-5 10,0 0,-15 -15,0 0,10 -5,0 0,5 -60,0 0,-10 5,0 0,-5 5,0 0,-5 5,0 0,-10 10,0 0,-5 -10,0 0,-10 -5,0 0,-5 -10,0 0,5 -10,0 0,5 -5,0 0,5 -5,0 0,10 -30,0 0,-10 -5,0 0,-10 -10,0 0,-10 -5,0 0,-10 -10,0 0,-15 -10,0 0,-10 5,0 0,-5 -5,0 0,-5 -5,0 0,10 -5,0 0,25 5,0 0,10 5,0 z"
         style="fill:#0000b7;fill-opacity:1;stroke:#0000b7;stroke-width:1px;stroke-linecap:butt;stroke-linejoin:miter;stroke-opacity:1"
         id="path70524" />
      <path
         inkscape:connector-curvature="0"
         id="path70535"
         d="m 229.22969,527.36218 5,0 0,-10 10,0 0,-15 5,0 0,-5 5,0 0,-10 5,0 0,25 -5,0 0,15 5,0 0,-15 5,0 0,-10 5,0 0,-15 5,0 0,-10 10,0 0,-5 -30,0 0,5 -5,0 0,15 -5,0 0,10 -10,0 0,15 -5,0 z"
         style="fill:#0000b7;fill-opacity:1;stroke:#0000b7;stroke-width:1px;stroke-linecap:butt;stroke-linejoin:miter;stroke-opacity:1" />
      <path
         inkscape:connector-curvature="0"
         d="m 210,458.1325 4.22969,0 0,4.22969 -4.22969,0 z m 20,0 4.22969,0 0,4.22969 -4.22969,0 z m -10,0 4.22969,0 0,4.22969 -4.22969,0 z m -20,0 4.22969,0 0,4.22969 -4.22969,0 z m -10,0 4.22969,0 0,4.22969 -4.22969,0 z m -10,0 4.22969,0 0,4.22969 -4.22969,0 z m 25,-10 4.22969,0 0,4.22969 -4.22969,0 z m 20,0 4.22969,0 0,4.22969 -4.22969,0 z m -10,0 4.22969,0 0,4.22969 -4.22969,0 z m -20,0 4.22969,0 0,4.22969 -4.22969,0 z m -10,0 4.22969,0 0,4.22969 -4.22969,0 z m -10,0 4.22969,0 0,4.22969 -4.22969,0 z m 35,-10 4.22969,0 0,4.22969 -4.22969,0 z m 20,0 4.22969,0 0,4.22969 -4.22969,0 z m -10,0 4.22969,0 0,4.22969 -4.22969,0 z m -20,0 4.22969,0 0,4.22969 -4.22969,0 z m -10,0 4.22969,0 0,4.22969 -4.22969,0 z m -10,0 4.22969,0 0,4.22969 -4.22969,0 z m 25,-10 4.22969,0 0,4.22969 -4.22969,0 z m 20,0 4.22969,0 0,4.22969 -4.22969,0 z m -10,0 4.22969,0 0,4.22969 -4.22969,0 z m -20,0 4.22969,0 0,4.22969 -4.22969,0 z m -10,0 4.22969,0 0,4.22969 -4.22969,0 z m -10,0 4.22969,0 0,4.22969 -4.22969,0 z m 35,-10 4.22969,0 0,4.22969 -4.22969,0 z m 20,0 4.22969,0 0,4.22969 -4.22969,0 z m -10,0 4.22969,0 0,4.22969 -4.22969,0 z m -20,0 4.22969,0 0,4.22969 -4.22969,0 z m -10,0 4.22969,0 0,4.22969 -4.22969,0 z m -10,0 4.22969,0 0,4.22969 -4.22969,0 z"
         style="fill:#008000;fill-rule:evenodd;stroke:#000000;stroke-width:0.7703104px;stroke-linecap:butt;stroke-linejoin:miter;stroke-opacity:1"
         id="rect35754-9-0-7" />
      <g
         transform="translate(69.22969,-59.999994)"
         id="g70517">
        <path
           style="fill:#ffffff;fill-opacity:1;stroke:#000000;stroke-width:1px;stroke-linecap:butt;stroke-linejoin:miter;stroke-opacity:1"
           d="m 170,477.36218 5,0 0,-5 30,0 0,15 5,0 0,-15 35,0 0,10 5,0 0,-10 50,0 0,5 5,0 0,50 -5,0 0,5 -40,0 0,5 -25,0 0,-5 -60,0 0,-5 -5,0 z"
           id="path70512"
           inkscape:connector-curvature="0"
           sodipodi:nodetypes="ccccccccccccccccccccccccc" />
        <path
           style="fill:#000000;fill-opacity:1;stroke:#000000;stroke-width:1px;stroke-linecap:butt;stroke-linejoin:miter;stroke-opacity:1"
           d="m 175,477.36218 25,0 0,15 15,0 0,-15 25,0 0,10 15,0 0,-10 45,0 0,50 -40,0 0,5 -25,0 0,-5 -60,0 z"
           id="path70451"
           inkscape:connector-curvature="0" />
        <path
           id="path37339-2"
           style="fill:#008000;fill-opacity:1;stroke:#008000;stroke-width:1px;stroke-linecap:butt;stroke-linejoin:miter;stroke-opacity:1"
           d="m 260,522.36218 35,0 0,-15 -15,0 0,10 -5,0 0,-30 5,0 0,10 15,0 0,-15 -35,0 0,40 m -40,-40 0,40 15,0 0,-20 5,0 0,25 15,0 0,-35 -20,0 0,-10 -15,0 0,40 0,0 m -40,-40 0,40.00001 35,0 0,-25.00001 -15,0 0,20 -5,0 0,-35 z"
           inkscape:connector-curvature="0" />
      </g>
      <g
         transform="translate(89.22969,-69.999997)"
         id="g70545">
        <path
           id="rect35754-22-6-4-9"
           style="fill:#008000;fill-rule:evenodd;stroke:#000000;stroke-width:0.76999998;stroke-linecap:butt;stroke-linejoin:miter;stroke-miterlimit:4;stroke-opacity:1;stroke-dasharray:none"
           d="m 295,508.13249 4.22969,0 0,4.22969 -4.22969,0 z m 0,20 4.22969,0 0,4.22969 -4.22969,0 z m 100,0 4.22969,0 0,4.22969 -4.22969,0 z m 20,0 4.22969,0 0,4.22969 -4.22969,0 z m -10,0 4.22969,0 0,4.22969 -4.22969,0 z m -20,0 4.22969,0 0,4.22969 -4.22969,0 z m -10,0 4.22969,0 0,4.22969 -4.22969,0 z m -10,0 4.22969,0 0,4.22969 -4.22969,0 z m 25,-10 4.22969,0 0,4.22969 -4.22969,0 z m 20,0 4.22969,0 0,4.22969 -4.22969,0 z m -10,0 4.22969,0 0,4.22969 -4.22969,0 z m -20,0 4.22969,0 0,4.22969 -4.22969,0 z m -10,0 4.22969,0 0,4.22969 -4.22969,0 z m -10,0 4.22969,0 0,4.22969 -4.22969,0 z m 35,-10 4.22969,0 0,4.22969 -4.22969,0 z m 20,0 4.22969,0 0,4.22969 -4.22969,0 z m -10,0 4.22969,0 0,4.22969 -4.22969,0 z m -20,0 4.22969,0 0,4.22969 -4.22969,0 z m -10,0 4.22969,0 0,4.22969 -4.22969,0 z m -10,0 4.22969,0 0,4.22969 -4.22969,0 z m 25,-10 4.22969,0 0,4.22969 -4.22969,0 z m 20,0 4.22969,0 0,4.22969 -4.22969,0 z m -10,0 4.22969,0 0,4.22969 -4.22969,0 z m -20,0 4.22969,0 0,4.22969 -4.22969,0 z m -10,0 4.22969,0 0,4.22969 -4.22969,0 z m -10,0 4.22969,0 0,4.22969 -4.22969,0 z m 35,-10 4.22969,0 0,4.22969 -4.22969,0 z m 20,0 4.22969,0 0,4.22969 -4.22969,0 z m -10,0 4.22969,0 0,4.22969 -4.22969,0 z m -20,0 4.22969,0 0,4.22969 -4.22969,0 z m -10,0 4.22969,0 0,4.22969 -4.22969,0 z m -10,0 4.22969,0 0,4.22969 -4.22969,0 z m -30,40 4.22969,0 0,4.22969 -4.22969,0 z m 20,0 4.22969,0 0,4.22969 -4.22969,0 z m -10,0 4.22969,0 0,4.22969 -4.22969,0 z m -20,0 4.22969,0 0,4.22969 -4.22969,0 z m -10,0 4.22969,0 0,4.22969 -4.22969,0 z m -10,0 4.22969,0 0,4.22969 -4.22969,0 z m 25,-10 4.22969,0 0,4.22969 -4.22969,0 z m 20,0 4.22969,0 0,4.22969 -4.22969,0 z m -10,0 4.22969,0 0,4.22969 -4.22969,0 z m -20,0 4.22969,0 0,4.22969 -4.22969,0 z m -10,0 4.22969,0 0,4.22969 -4.22969,0 z m -10,0 4.22969,0 0,4.22969 -4.22969,0 z m 35,-10 4.22969,0 0,4.22969 -4.22969,0 z m 20,0 4.22969,0 0,4.22969 -4.22969,0 z m -10,0 4.22969,0 0,4.22969 -4.22969,0 z m -20,0 4.22969,0 0,4.22969 -4.22969,0 z m -10,0 4.22969,0 0,4.22969 -4.22969,0 z m -10,0 4.22969,0 0,4.22969 -4.22969,0 z m 25,-10 4.22969,0 0,4.22969 -4.22969,0 z m 20,0 4.22969,0 0,4.22969 -4.22969,0 z m -10,0 4.22969,0 0,4.22969 -4.22969,0 z m -20,0 4.22969,0 0,4.22969 -4.22969,0 z m -10,0 4.22969,0 0,4.22969 -4.22969,0 z m -10,0 4.22969,0 0,4.22969 -4.22969,0 z m 35,-10 4.22969,0 0,4.22969 -4.22969,0 z m 20,0 4.22969,0 0,4.22969 -4.22969,0 z m -10,0 4.22969,0 0,4.22969 -4.22969,0 z m -20,0 4.22969,0 0,4.22969 -4.22969,0 z m -10,0 4.22969,0 0,4.22969 -4.22969,0 z m -10,0 4.22969,0 0,4.22969 -4.22969,0 z"
           inkscape:connector-curvature="0" />
        <rect
           style="fill:#008000;fill-opacity:1;stroke:#000000;stroke-width:0.76999998;stroke-linecap:butt;stroke-linejoin:miter;stroke-miterlimit:4;stroke-opacity:1;stroke-dasharray:none"
           id="rect70541"
           width="4.3327556"
           height="4.3327556"
           x="290"
           y="518.02942" />
        <rect
           style="fill:#008000;fill-opacity:1;stroke:#000000;stroke-width:0.76999998;stroke-linecap:butt;stroke-linejoin:miter;stroke-miterlimit:4;stroke-opacity:1;stroke-dasharray:none"
           id="rect70543"
           width="4.3327556"
           height="4.3327556"
           x="290"
           y="498.02942" />
      </g>
    </g>
  </g>
</svg>