<?xml version="1.0" encoding="UTF-8" standalone="no"?>
<svg
   xmlns:dc="http://purl.org/dc/elements/1.1/"
   xmlns:cc="http://creativecommons.org/ns#"
   xmlns:rdf="http://www.w3.org/1999/02/22-rdf-syntax-ns#"
   xmlns:svg="http://www.w3.org/2000/svg"
   xmlns="http://www.w3.org/2000/svg"
   xmlns:sodipodi="http://sodipodi.sourceforge.net/DTD/sodipodi-0.dtd"
   xmlns:inkscape="http://www.inkscape.org/namespaces/inkscape"
   version="1.0"
   width="300.000000pt"
   height="300.000000pt"
   viewBox="0 0 300.000000 300.000000"
   preserveAspectRatio="xMidYMid meet"
   id="svg2"
   inkscape:version="0.91 r13725"
   sodipodi:docname="negative_feedback_circuit.svg">
  <defs
     id="defs98" />
  <sodipodi:namedview
     pagecolor="#ffffff"
     bordercolor="#666666"
     borderopacity="1"
     objecttolerance="10"
     gridtolerance="10"
     guidetolerance="10"
     inkscape:pageopacity="0"
     inkscape:pageshadow="2"
     inkscape:window-width="1920"
     inkscape:window-height="1031"
     id="namedview96"
     showgrid="false"
     inkscape:zoom="1.2586667"
     inkscape:cx="87.659156"
     inkscape:cy="223.63411"
     inkscape:window-x="0"
     inkscape:window-y="25"
     inkscape:window-maximized="1"
     inkscape:current-layer="svg2" />
  <metadata
     id="metadata4">
Created by potrace 1.10, written by Peter Selinger 2001-2011
<rdf:RDF>
  <cc:Work
     rdf:about="">
    <dc:format>image/svg+xml</dc:format>
    <dc:type
       rdf:resource="http://purl.org/dc/dcmitype/StillImage" />
    <dc:title></dc:title>
  </cc:Work>
</rdf:RDF>
</metadata>
  <g
     id="g3470"
     style="fill:#008000"
     transform="matrix(1.8614008,0,0,1.8614008,-6.3742726,-6.2305559)">
    <path
       d="m 14.560169,11.733051 c -1.1,2.5 -2.3,4.5 -2.7,4.5 -0.5,0 -1.1,-1.8 -1.5,-4 C 9.9601694,9.8330508 9.1601694,8.2330508 8.2601694,8.2330508 c -1.5,0 -1,4.2000002 1.2,9.7000002 1.1999996,3.1 4.3999996,4.6 4.3999996,2.2 0,-0.6 1.1,-3.3 2.5,-6.1 2.8,-5.6000002 3,-6.8000002 1.3,-6.8000002 -0.7,0 -2.1,2 -3.1,4.5000002 z"
       id="path8"
       inkscape:connector-curvature="0"
       style="fill:#008000;stroke:none" />
    <path
       d="m 18.860169,13.333051 c -1.1,0.8 -1.2,1.2 -0.2,1.6 1.7,0.7 1.5,3.3 -0.3,3.3 -0.8,0 -1.5,0.5 -1.5,1.1 0,1.5 7.3,0.6 7.8,-1 0.3,-0.8 0,-1.1 -0.6,-0.7 -0.6,0.3 -1.4,0.1 -1.7,-0.5 -0.4,-0.6 0.2,-1.3 1.4,-1.6 1.2,-0.3 2,-1.1 1.8,-1.7 -0.5,-1.5 -4.9,-1.9 -6.7,-0.5 z"
       id="path10"
       inkscape:connector-curvature="0"
       style="fill:#008000;stroke:none" />
    <path
       d="m 33.860169,14.133051 c 0,1.2 -0.4,2.1 -1,2.1 -0.5,0 -1,-0.7 -1,-1.5 0,-0.8 -0.8,-1.5 -1.9,-1.5 -1.3,0 -2,1 -2.5,3.2 -0.7,3.7 0.1,5.1 1.5,2.5 1,-1.6 1.2,-1.6 2.9,0.5 l 1.8,2.3 1,-2.6 c 1.7,-4.3 1.8,-6.2 0.5,-6.6 -0.8,-0.3 -1.3,0.4 -1.3,1.6 z"
       id="path12"
       inkscape:connector-curvature="0"
       style="fill:#008000;stroke:none" />
    <path
       d="m 112.36017,13.233051 c -0.3,0.6 -0.4,2 0,3.3 1.9,7.1 2.9,9.7 3.9,9.7 0.6,0 2.5,-2.6 4.1,-5.7 3.9,-7.4 3.9,-7.3 2.2,-7.3 -0.8,0 -2.6,2.1 -3.9,4.7 l -2.3,4.8 -0.9,-5.3 c -0.9,-5 -1.8,-6.3 -3.1,-4.2 z"
       id="path14"
       inkscape:connector-curvature="0"
       style="fill:#008000;stroke:none" />
    <path
       d="m 51.460169,15.033051 c -0.3,0.3 -0.6,2.9 -0.6,5.9 l 0,5.3 -7.7,0.1 c -13.6,0.3 -19.7,-0.2 -21.4,-1.7 -3.5,-3.1 -8.9,-0.3 -8.9,4.7 0,3.2 1.1,4.6 3.5,4.9 4,0.5 5.6,0 6.3,-2 0.7,-1.9 1.8,-2.1 14.5,-2.5 l 13.8,-0.5 -0.3,7.7 -0.3,7.8 -3,0.1 c -1.6,0.1 -4.2,0.2 -5.7,0.3 l -2.7,0.1 0.6,8.4 c 0.4,5.9 0.2,9.4 -0.7,11.6 -1,2.3 -1,3.4 -0.1,4.3 0.6,0.6 1.1,3 1.1,5.4 0,3.4 -0.5,4.6 -2.5,5.9 -3,1.9 -2.5,3 1.5,3.9 4,0.9 3.8,1.8 -0.7,3.9 -3.6,1.7 -3.7,1.9 -1.8,3.2 1,0.8 2.7,1.4 3.8,1.4 2.9,0 1.4,2.4 -2.1,3.4 -1.8,0.5 -3.2,1.3 -3.2,1.7 0,1.2 3.5,2.899999 5.9,2.899999 2.5,0 2.8,1.7 0.4,2.2 -1.2,0.2 -1.8,1.3 -1.8,3.3 0,2.7 -0.3,3 -3.7,3.3 -7.6,0.6 -3.5,2.1 5.7,2 6.7,0 9.5,-0.4 9.2,-1.2 -0.2,-0.6 -1.5,-1.1 -2.8,-1.2 -4.4,-0.1 -4.9,-0.4 -4.9,-2.4 0,-1.2 1.3,-2.8 3.2,-4 3.4,-2 3.3,-2.1 -3.2,-3.799999 l -3.5,-1 4.2,-1.8 c 2.4,-1.1 4.3,-2.2 4.3,-2.5 0,-0.4 -2.1,-1.2 -4.7,-2 l -4.8,-1.3 5.5,-2.4 5.4,-2.5 -5.5,-1.6 -5.4,-1.7 2.8,-1.9 c 2.5,-1.6 2.8,-2.4 2.5,-6.1 -0.4,-5.6 1,-6.4 11.7,-6.4 l 8.6,0 0.6,3 c 0.9,4.6 2.2,4.6 4.1,0.1 0.9,-2.2 2,-4.1 2.3,-4.1 0.8,0 2.9,4.7 2.9,6.5 0,3 1.9,1.4 2.6,-2 0.9,-4.8 2,-5.2 3.4,-1 1.6,4.7 2.7,4.4 4.1,-1.2 l 1.2,-4.6 1.8,2.2 c 1.6,2 2.8,2.3 8.9,2.2 3.9,0 7.500001,-0.3 8.100001,-0.6 0.5,-0.4 0.9,-5.2 1,-10.8 0,-5.6 0.4,-12.2 0.7,-14.7 l 0.7,-4.5 5.8,-0.3 c 4.4,-0.2 5.7,0 5.7,1.1 0,0.8 1.1,2.2 2.5,3.1 4.4,2.9 9.5,-0.2 9.5,-5.8 0,-6.5 -5.3,-9.4 -9.5,-5.2 -2.1,2.2 -3.5,2.6 -8,2.6 -3,0 -5.7,-0.5 -6,-1 -0.3,-0.6 -1.5,-1 -2.6,-1 -1,0 -1.9,0.4 -1.9,1 0,0.5 -2.000001,1 -4.500001,1 -3.7,0 -7.7,-1.6 -21.3,-8.4 -19.3,-9.7 -23.8,-11.7 -24.6,-10.8 z m 19.3,11.7 c 8.4,4.1 15.6,7.5 16.1,7.5 2.1,0 0.8,1.6 -2.8,3.3 -6,3 -27.1,15.7 -27.7,16.7 -1.8,3 -2.4,-0.8 -2.7,-17 -0.2,-13.1 0,-18 0.9,-18 0.6,0 7.9,3.4 16.2,7.5 z m -49.9,1 c 1.6,1.9 0.4,3.5 -2.5,3.5 -2.7,0 -3.9,-1.4 -3.1,-3.5 0.7,-1.9 4,-1.9 5.6,0 z m 105.800001,8.1 c 0.3,3.4 -1.8,6 -4.3,5 -3,-1.1 -0.9,-9 2.3,-8.4 1.1,0.2 1.8,1.5 2,3.4 z m -21.4,0.3 c 0.3,0.4 0.3,1.1 0,1.4 -0.8,0.8 -3.4,-0.3 -3.4,-1.4 0,-1.1 2.7,-1.2 3.4,0 z m -3.4,2.8 c 0.3,0.4 0.4,6.8 0.2,14 l -0.4,13.3 -6.200001,0 c -5.8,0 -6.4,-0.2 -7.5,-2.6 -1.4,-3.2 -3.3,-2.7 -4.5,1.4 -0.5,1.8 -1.2,3.2 -1.6,3.2 -0.4,0 -1.5,-1.9 -2.4,-4.3 -1.6,-3.7 -1.9,-4 -2.6,-2.2 -0.5,1.1 -0.9,3 -0.9,4.2 -0.1,3.4 -1.8,2.8 -3.1,-1.2 -0.6,-1.9 -1.5,-3.5 -1.9,-3.5 -0.4,0 -1.6,1.9 -2.5,4.2 -1.6,4 -1.8,4.1 -2.6,2 -0.9,-2.1 -1.5,-2.2 -10.8,-2.2 -6.8,0 -10.3,-0.4 -11,-1.3 -0.5,-0.6 -1.2,-4.6 -1.4,-8.7 l -0.3,-7.5 4.3,-0.3 4.2,-0.3 0,5.5 c 0,5 0.2,5.6 2.1,5.6 1.1,0 3.9,-1.3 6.2,-2.8 5.6,-3.8 20,-12.4 26.2,-15.6 4.1,-2.2 5.9,-2.6 10.4,-2.2 3,0.3 5.700001,0.8 6.100001,1.3 z m -58.700001,26.9 c 0.8,0.8 -0.3,3.4 -1.4,3.4 -0.5,0 -0.9,-0.9 -0.9,-2 0,-1.9 1.1,-2.6 2.3,-1.4 z"
       id="path16"
       inkscape:connector-curvature="0"
       style="fill:#008000;stroke:none" />
    <path
       d="m 57.860169,24.533051 c 0,0.8 -0.6,1.7 -1.4,2 -1.2,0.5 -1.2,1.1 -0.3,3.1 1.3,2.8 3.7,3.5 3.7,1.1 0,-0.8 0.9,-1.5 1.9,-1.5 2.1,0 4,-1.9 2.2,-2.1 -0.6,-0.1 -1.7,-0.2 -2.3,-0.3 -0.7,0 -1.3,-0.7 -1.3,-1.5 0,-0.8 -0.6,-1.6 -1.2,-1.9 -0.7,-0.2 -1.3,0.3 -1.3,1.1 z"
       id="path18"
       inkscape:connector-curvature="0"
       style="fill:#008000;stroke:none" />
    <path
       d="m 55.060169,45.333051 c 0.5,1.6 7.7,1.7 9,0.1 0.8,-0.9 -0.1,-1.2 -4.2,-1.2 -3.4,0 -5,0.4 -4.8,1.1 z"
       id="path20"
       inkscape:connector-curvature="0"
       style="fill:#008000;stroke:none" />
    <path
       d="m 122.46017,20.533051 c -2.6,1.9 -1.8,6.1 1.2,6.5 4.6,0.7 7.2,-4.7 3.3,-6.8 -2.5,-1.3 -2.4,-1.3 -4.5,0.3 z m 3.4,2.7 c 0,1.1 -0.7,2 -1.5,2 -1.7,0 -1.8,-0.2 -0.9,-2.4 0.9,-2.3 2.4,-2 2.4,0.4 z"
       id="path22"
       inkscape:connector-curvature="0"
       style="fill:#008000;stroke:none" />
    <path
       d="m 139.86017,20.233051 c 0,0.6 0.5,1 1.1,1 0.7,0 0.8,1.1 0.4,3 -0.5,2.3 -0.3,3 0.8,3 0.8,0 1.7,-1.3 2,-2.9 0.5,-2.4 1,-2.8 2.7,-2.4 1.1,0.3 2,0.1 2,-0.5 0,-1.2 -2.1,-1.9 -6.2,-2.1 -1.6,0 -2.8,0.4 -2.8,0.9 z"
       id="path24"
       inkscape:connector-curvature="0"
       style="fill:#008000;stroke:none" />
    <path
       d="m 130.26017,21.633051 c -1.9,4.9 4,7.7 7,3.4 2,-2.8 2.1,-4.8 0.2,-4.8 -0.8,0 -1.7,1.1 -2,2.5 -0.4,1.4 -1.3,2.5 -2.1,2.5 -1.1,0 -1.4,-0.7 -0.9,-2.5 0.7,-2.7 -1.2,-3.6 -2.2,-1.1 z"
       id="path26"
       inkscape:connector-curvature="0"
       style="fill:#008000;stroke:none" />
    <path
       d="m 75.160169,77.333051 c -2.2,0.8 -2.4,1.4 -2.7,7.4 -0.1,2.4 1.8,1.8 2.5,-0.7 0.5,-2.2 0.6,-2.2 2.2,0.9 1.8,3.3 3.7,4.4 3.7,2 0,-0.7 -0.5,-1.8 -1.2,-2.5 -0.8,-0.8 -0.8,-1.5 0.1,-2.5 1.3,-1.6 0.6,-4.3 -1.2,-5 -0.7,-0.2 -2.2,-0.1 -3.4,0.4 z m 2.7,2.4 c 0,0.8 -0.7,1.5 -1.5,1.5 -1.6,0 -2,-1.2 -0.8,-2.3 1.1,-1.2 2.3,-0.8 2.3,0.8 z"
       id="path28"
       inkscape:connector-curvature="0"
       style="fill:#008000;stroke:none" />
    <path
       d="m 83.560169,80.933051 c -1.2,1.9 -1.1,6.7 0.1,7 0.6,0.3 1.2,0 1.2,-0.6 0,-0.6 1.1,-1.1 2.5,-1.1 1.4,0 2.5,-0.5 2.5,-1 0,-0.6 -1.1,-1 -2.5,-1 -1.4,0 -2.5,-0.5 -2.5,-1 0,-0.6 1,-0.8 2.4,-0.4 1.3,0.3 2.7,0.1 3,-0.5 0.4,-0.7 -0.1,-1.1 -1.3,-1.1 -1,0 -2.6,-0.3 -3.4,-0.6 -0.8,-0.3 -1.7,-0.2 -2,0.3 z"
       id="path30"
       inkscape:connector-curvature="0"
       style="fill:#008000;stroke:none" />
    <path
       d="m 52.360169,90.433051 c -1.1,3.1 -0.9,9.1 0.3,9.5 0.7,0.299999 1.2,-0.4 1.2,-1.6 0,-2.7 1.6,-2.7 3,-0.1 1.3,2.499999 3.5,2.699999 2.5,0.2 -0.4,-0.9 -0.8,-3.3 -0.9,-5.2 -0.1,-3 -0.5,-3.5 -2.9,-3.8 -1.6,-0.2 -2.9,0.2 -3.2,1 z m 3.9,1.7 c 0.3,0.5 -0.1,1.4 -0.9,2.1 -1.3,1 -1.5,0.9 -1.5,-0.9 0,-2.1 1.4,-2.8 2.4,-1.2 z"
       id="path32"
       inkscape:connector-curvature="0"
       style="fill:#008000;stroke:none" />
    <path
       d="m 61.860169,95.133051 c -2,3.9 -0.7,7.099999 2.9,7.099999 1,0 5.1,-3.499999 5.1,-4.399999 0,-0.3 -1.1,-0.6 -2.5,-0.6 -1.6,0 -2.5,0.6 -2.5,1.5 0,0.8 -0.5,1.499999 -1.1,1.499999 -2.1,0 -0.4,-4.499999 1.9,-4.799999 1.2,-0.2 2,-0.8 1.7,-1.3 -1,-1.6 -4.4,-1 -5.5,1 z"
       id="path34"
       inkscape:connector-curvature="0"
       style="fill:#008000;stroke:none" />
    <path
       d="m 34.860169,115.23305 c 0,0.6 3,1 7.1,1 4.4,0 6.8,-0.4 6.4,-1 -0.3,-0.6 -3.5,-1 -7.1,-1 -3.6,0 -6.4,0.4 -6.4,1 z"
       id="path36"
       inkscape:connector-curvature="0"
       style="fill:#008000;stroke:none" />
    <path
       d="m 39.560169,117.83305 c -0.4,0.4 -0.7,1.1 -0.7,1.6 0,1.3 5,0.6 5.3,-0.7 0.2,-1.2 -3.6,-1.9 -4.6,-0.9 z"
       id="path38"
       inkscape:connector-curvature="0"
       style="fill:#008000;stroke:none" />
  </g>
</svg>
